<?xml version="1.0" standalone="no"?>
<!DOCTYPE svg PUBLIC "-//W3C//DTD SVG 20010904//EN"
 "http://www.w3.org/TR/2001/REC-SVG-20010904/DTD/svg10.dtd">
<svg version="1.0" xmlns="http://www.w3.org/2000/svg"
 width="500.000000pt" height="500.000000pt" viewBox="0 0 500.000000 500.000000"
 preserveAspectRatio="xMidYMid meet">
<metadata>
Created by potrace 1.11, written by Peter Selinger 2001-2013
</metadata>
<g transform="translate(0.000000,500.000000) scale(0.100000,-0.100000)"
fill="#000000" stroke="none">
<path d="M1550 4202 c-62 -30 -66 -100 -8 -153 43 -41 115 -59 222 -57 l91 1
-105 6 c-156 10 -233 54 -233 133 0 59 86 91 141 52 42 -29 22 -93 -33 -107
-18 -4 -18 -5 3 -6 44 -2 75 54 56 104 -7 18 -55 45 -81 45 -10 0 -34 -8 -53
-18z"/>
<path d="M3355 4209 c-31 -18 -45 -40 -45 -71 0 -34 32 -68 63 -67 20 1 20 2
2 6 -85 21 -65 123 24 123 73 0 108 -58 71 -118 -31 -51 -95 -74 -220 -82
l-105 -7 91 -1 c56 -1 110 4 141 13 146 43 168 191 32 211 -19 2 -43 -1 -54
-7z"/>
<path d="M1570 4106 c0 -2 8 -10 18 -17 15 -13 16 -12 3 4 -13 16 -21 21 -21
13z"/>
<path d="M2236 4056 c-36 -19 -78 -39 -93 -45 -27 -11 -26 -11 7 -5 19 4 50 8
67 8 24 1 43 12 70 39 47 46 33 47 -51 3z"/>
<path d="M2713 4054 c27 -28 46 -39 70 -40 17 0 48 -4 67 -8 l35 -6 -30 11
c-16 7 -52 24 -80 40 -27 15 -61 30 -75 34 -23 6 -22 4 13 -31z"/>
<path d="M1430 4054 c-8 -8 -26 -24 -40 -35 -20 -16 -21 -19 -5 -13 26 10 69
10 130 0 l50 -8 -45 36 c-49 39 -67 43 -90 20z"/>
<path d="M3484 4035 c-54 -39 -53 -40 30 -24 41 7 67 7 88 0 31 -11 31 -11 13
9 -10 11 -24 20 -30 20 -7 0 -15 7 -19 15 -8 23 -28 18 -82 -20z"/>
<path d="M2439 4030 c-3 -15 -13 -27 -29 -31 -22 -6 -22 -7 -4 -8 26 -1 47 22
42 46 -4 14 -6 12 -9 -7z"/>
<path d="M2551 4035 c-1 -12 4 -26 11 -33 7 -7 21 -12 33 -11 17 1 16 2 -5 8
-14 4 -27 17 -31 31 -6 21 -7 22 -8 5z"/>
<path d="M1938 4013 c7 -3 16 -2 19 1 4 3 -2 6 -13 5 -11 0 -14 -3 -6 -6z"/>
<path d="M3048 4013 c7 -3 16 -2 19 1 4 3 -2 6 -13 5 -11 0 -14 -3 -6 -6z"/>
<path d="M1873 4003 c9 -2 25 -2 35 0 9 3 1 5 -18 5 -19 0 -27 -2 -17 -5z"/>
<path d="M3103 4003 c9 -2 23 -2 30 0 6 3 -1 5 -18 5 -16 0 -22 -2 -12 -5z"/>
<path d="M2435 3686 c-83 -87 -143 -110 -275 -103 -52 3 -129 11 -170 17 -120
19 -277 -8 -351 -60 -22 -16 -31 -17 -61 -8 -21 6 -55 8 -83 4 -83 -13 -156
-103 -139 -172 5 -19 -1 -25 -42 -43 -146 -65 -214 -187 -230 -416 -8 -118
-19 -158 -54 -199 -47 -53 -77 -61 -173 -47 -59 9 -90 10 -109 2 -37 -14 -61
-54 -56 -91 4 -27 1 -31 -26 -38 -41 -11 -42 -41 -1 -56 26 -10 30 -15 27 -44
-3 -25 3 -39 27 -62 33 -33 52 -36 146 -19 73 14 102 8 145 -27 50 -42 61 -76
75 -229 9 -91 22 -162 36 -199 31 -84 92 -154 170 -194 54 -28 64 -38 65 -60
2 -62 6 -73 36 -108 18 -20 47 -43 65 -50 35 -15 96 -17 128 -5 14 6 37 -1 75
-21 62 -32 171 -58 245 -57 28 0 86 6 130 14 116 21 213 19 279 -5 58 -22 133
-81 155 -124 20 -37 44 -32 74 13 32 48 103 99 165 117 60 18 151 18 264 -2
146 -25 293 -5 392 55 21 13 37 16 51 11 36 -15 98 -10 141 11 54 26 88 78 89
137 1 42 3 44 51 66 139 64 206 187 219 398 8 131 26 188 71 227 45 40 74 46
149 32 94 -17 113 -14 146 19 24 23 30 37 27 62 -3 29 1 34 27 44 40 15 40 45
-1 56 -27 7 -30 11 -26 42 3 29 -1 41 -26 66 -34 34 -53 36 -147 19 -75 -14
-104 -8 -149 32 -45 39 -63 96 -71 227 -13 212 -81 335 -222 399 -47 22 -52
27 -47 48 9 38 -14 91 -56 129 -45 40 -93 53 -153 39 -37 -8 -49 -6 -97 19
-30 16 -91 36 -135 45 -71 14 -92 15 -185 3 -187 -24 -269 -24 -331 -1 -63 24
-132 79 -155 122 -8 16 -20 29 -27 29 -6 -1 -39 -29 -72 -64z m96 -52 l24 -25
-28 10 c-19 8 -34 8 -47 1 -31 -17 -35 -11 -10 15 29 31 31 31 61 -1z m13 -71
c79 -67 222 -101 346 -83 41 6 104 16 140 21 121 18 244 -13 311 -78 l37 -35
41 26 c49 31 74 33 101 6 28 -28 25 -43 -20 -110 -22 -32 -40 -61 -40 -64 0
-4 36 -6 80 -6 89 0 134 -17 182 -67 53 -56 88 -175 88 -304 0 -79 32 -176 75
-226 63 -73 161 -108 255 -89 33 7 34 6 15 -9 -20 -16 -20 -16 -1 -27 19 -11
19 -11 1 -24 -18 -13 -18 -15 -2 -27 15 -10 4 -12 -65 -12 -73 0 -89 -3 -130
-27 -100 -59 -142 -151 -152 -335 -7 -120 -32 -198 -82 -253 -50 -55 -88 -70
-183 -70 -45 0 -81 -2 -81 -5 0 -2 18 -32 40 -66 46 -71 48 -81 20 -109 -27
-27 -58 -25 -104 6 l-38 26 -37 -36 c-76 -74 -204 -99 -361 -71 -205 36 -351
10 -450 -81 l-26 -24 -53 40 c-97 73 -252 100 -397 70 -32 -7 -99 -13 -149
-14 -112 -1 -181 21 -242 77 l-43 40 -38 -27 c-46 -31 -75 -33 -102 -6 -28 28
-26 38 20 109 22 34 40 63 40 65 0 2 -42 6 -94 8 -88 3 -97 5 -133 34 -81 65
-108 135 -123 315 -5 63 -14 131 -20 151 -16 54 -68 118 -125 153 -44 27 -57
30 -130 30 -68 0 -80 2 -66 12 15 12 14 14 -3 24 -19 12 -19 12 -1 25 18 14
18 14 0 28 -17 12 -10 13 51 9 83 -6 137 13 202 71 59 54 81 116 93 259 12
148 29 212 72 269 52 67 96 88 195 88 45 0 82 2 82 5 0 2 -18 32 -40 66 -46
71 -48 81 -20 109 27 27 58 25 103 -6 l38 -25 44 40 c80 74 213 93 405 57 81
-15 109 -16 175 -7 83 12 157 41 214 85 43 32 46 32 85 -1z m-1001 -90 c-7 -2
-19 -2 -25 0 -7 3 -2 5 12 5 14 0 19 -2 13 -5z m1995 -13 c32 -20 57 -62 49
-84 -2 -6 -7 3 -11 21 -9 40 -25 53 -84 69 -40 11 -42 13 -17 13 17 1 45 -8
63 -19z m-2082 -25 c-18 -19 -26 -40 -27 -64 0 -33 -1 -34 -10 -13 -13 33 -1
69 29 92 34 28 39 18 8 -15z m-141 -187 c-11 -6 -40 -29 -64 -52 -33 -30 -39
-33 -23 -12 25 33 80 76 96 76 6 0 2 -6 -9 -12z m-148 -210 c-3 -8 -6 -5 -6 6
-1 11 2 17 5 13 3 -3 4 -12 1 -19z m-10 -60 c-3 -8 -6 -5 -6 6 -1 11 2 17 5
13 3 -3 4 -12 1 -19z m-312 -378 c17 -7 15 -9 -13 -9 -25 -1 -35 -7 -44 -26
-9 -19 -14 -22 -25 -14 -14 12 -18 41 -6 52 9 10 64 7 88 -3z m3401 -5 c4 -8
4 -22 0 -30 -5 -13 -9 -12 -26 5 -11 11 -34 20 -52 21 -31 1 -32 1 -8 9 42 13
80 11 86 -5z m-3412 -176 l41 -1 -34 -9 c-69 -21 -114 7 -79 48 12 15 14 13
22 -10 8 -23 16 -27 50 -28z m3414 7 c-4 -25 -39 -32 -89 -17 -32 9 -31 9 19
9 62 -1 68 3 51 34 -11 21 -11 22 5 9 9 -8 16 -24 14 -35z m-3091 -413 c-3
-10 -5 -2 -5 17 0 19 2 27 5 18 2 -10 2 -26 0 -35z m22 -83 c0 -9 -4 -8 -9 5
-5 11 -9 27 -9 35 0 9 4 8 9 -5 5 -11 9 -27 9 -35z m126 -157 c59 -39 51 -44
-11 -8 -24 14 -57 45 -74 70 -40 58 -38 68 3 13 18 -24 55 -58 82 -75z m2460
37 c-3 -5 -20 -19 -38 -30 -32 -22 -32 -22 3 9 37 32 45 37 35 21z m-85 -60
c-8 -5 -19 -10 -25 -10 -5 0 -3 5 5 10 8 5 20 10 25 10 6 0 3 -5 -5 -10z m-95
-143 c-11 -42 -48 -69 -102 -73 -46 -3 -46 -3 -10 5 58 12 86 31 99 67 14 38
22 39 13 1z m-2130 -37 c-7 -11 71 -34 89 -27 9 4 16 2 16 -3 0 -13 -51 -13
-84 0 -14 5 -35 24 -46 42 -27 45 -25 57 4 23 14 -16 23 -32 21 -35z m280 -71
c15 -14 -7 -10 -35 7 l-25 15 25 -7 c14 -3 29 -10 35 -15z m100 -24 c58 -14
59 -14 11 -9 -27 3 -58 9 -70 14 -32 13 -8 11 59 -5z m1372 -1 c-3 -3 -12 -4
-19 -1 -8 3 -5 6 6 6 11 1 17 -2 13 -5z m-74 -11 c-13 -2 -35 -2 -50 0 -16 2
-5 4 22 4 28 0 40 -2 28 -4z m-617 -72 c8 6 14 8 14 4 0 -5 10 0 23 11 12 10
5 0 -15 -21 l-38 -40 -37 38 -38 39 39 -22 c29 -16 41 -18 52 -9z"/>
<path d="M2383 3404 c-7 -3 -13 -20 -13 -37 0 -23 -3 -28 -9 -18 -14 21 -41 5
-41 -25 0 -17 6 -28 20 -31 16 -4 18 -9 9 -25 -19 -35 0 -84 66 -173 57 -77
70 -103 88 -180 3 -13 5 -9 6 11 0 17 -6 51 -14 75 l-15 44 24 -27 23 -26 32
31 32 32 -25 -55 c-29 -63 -33 -108 -11 -150 19 -36 43 -50 87 -50 39 0 58 15
57 44 0 20 -1 20 -9 -2 -13 -30 -34 -37 -71 -22 -85 36 -79 137 17 274 l36 51
-40 -44 c-29 -32 -40 -39 -39 -25 2 16 -5 19 -43 20 -56 1 -81 -11 -73 -34 9
-24 3 -18 -61 67 -64 85 -72 123 -33 159 13 12 26 22 29 22 11 0 -11 -62 -29
-83 -14 -15 -15 -19 -3 -15 8 2 23 21 34 42 13 27 21 35 29 27 6 -6 16 -11 22
-11 5 1 -5 13 -22 29 l-33 27 35 17 c19 9 35 21 35 26 0 23 -68 47 -97 35z
m66 -23 c15 -10 7 -31 -13 -31 -7 0 -26 -11 -41 -24 -31 -27 -55 -24 -55 7 0
19 1 20 20 2 20 -18 20 -17 20 12 0 16 3 33 7 36 9 10 45 8 62 -2z m65 -313
c-6 -10 -4 -10 7 0 17 16 49 16 49 -1 0 -8 -11 -24 -24 -36 l-24 -23 -16 30
c-15 28 -13 42 6 42 5 0 6 -6 2 -12z"/>
<path d="M2646 3384 c-3 -9 -6 -28 -6 -43 0 -15 -6 -33 -12 -40 -11 -11 -10
-13 2 -9 8 3 19 23 24 46 5 23 14 42 21 42 7 0 31 -14 53 -30 42 -30 53 -54
30 -63 -8 -3 -7 -6 4 -6 45 -2 27 45 -34 89 -46 33 -73 38 -82 14z"/>
<path d="M2573 3304 c-9 -25 57 -85 97 -87 21 -1 35 3 38 13 4 13 3 13 -11 2
-12 -11 -21 -11 -39 -1 -38 19 -77 60 -71 75 3 8 2 14 -1 14 -4 0 -9 -7 -13
-16z"/>
<path d="M2292 3243 c-13 -14 -21 -32 -17 -40 3 -8 -4 -26 -15 -40 -34 -44
-21 -93 25 -93 25 0 45 18 44 40 0 10 -2 11 -6 2 -7 -18 -39 -33 -57 -26 -24
9 -19 52 10 81 20 20 23 28 13 34 -11 6 -8 14 10 33 14 14 22 28 20 30 -2 3
-15 -7 -27 -21z"/>
<path d="M2440 3229 c0 -5 5 -7 10 -4 6 3 10 8 10 11 0 2 -4 4 -10 4 -5 0 -10
-5 -10 -11z"/>
<path d="M2540 3219 c-9 -16 -8 -26 5 -45 8 -13 20 -24 26 -24 8 0 8 -4 0 -14
-8 -10 -9 -16 -1 -21 5 -3 10 -1 10 5 0 6 12 16 28 22 l27 12 -30 4 c-43 5
-58 21 -51 54 7 33 1 36 -14 7z"/>
<path d="M2463 3187 c-4 -7 -17 -17 -28 -21 -14 -6 -16 -10 -6 -13 14 -6 59
33 49 42 -3 4 -10 0 -15 -8z"/>
<path d="M2645 3190 c-3 -6 1 -7 9 -4 18 7 21 14 7 14 -6 0 -13 -4 -16 -10z"/>
<path d="M2522 3148 c5 -15 28 -18 29 -3 0 6 -7 12 -17 13 -10 3 -15 -1 -12
-10z"/>
<path d="M2420 2990 c25 -57 25 -81 -1 -114 -22 -28 -64 -35 -100 -16 -28 16
-26 68 4 80 16 6 18 9 5 9 -10 1 -25 -11 -34 -25 -16 -24 -16 -27 3 -52 41
-54 123 -48 152 12 16 34 4 85 -29 126 l-20 25 20 -45z"/>
<path d="M2220 2750 c0 -6 -36 -10 -87 -10 -75 -1 -85 -3 -70 -14 15 -12 17
-33 17 -174 0 -144 -2 -161 -17 -165 -10 -3 21 -5 69 -6 59 -1 88 -5 91 -13 3
-7 6 15 6 50 1 34 -3 62 -8 62 -5 0 -7 -8 -4 -18 2 -10 0 -30 -6 -45 -9 -24
-16 -27 -56 -27 l-45 0 0 99 c0 55 3 106 6 115 8 22 41 3 47 -26 2 -13 4 6 4
42 0 36 -2 53 -4 38 -3 -22 -10 -28 -29 -28 -22 0 -24 4 -24 45 l0 45 44 0
c49 0 56 -7 67 -60 5 -28 7 -22 8 33 0 37 -1 67 -4 67 -3 0 -5 -4 -5 -10z"/>
<path d="M3220 2750 c0 -6 -33 -10 -80 -10 -74 0 -101 -10 -65 -24 12 -4 15
-32 15 -165 0 -144 -2 -160 -17 -164 -10 -3 9 -5 42 -5 39 0 51 2 35 7 l-25 7
-3 162 -3 163 48 -3 c48 -3 48 -3 51 -40 5 -61 22 -44 22 22 0 33 -4 60 -10
60 -5 0 -10 -4 -10 -10z"/>
<path d="M1865 2741 c-11 -5 -37 -6 -57 -3 -25 3 -38 1 -38 -7 0 -6 7 -11 15
-11 13 0 15 -25 15 -165 0 -150 -2 -165 -17 -166 -10 -1 14 -5 52 -10 87 -10
135 2 169 42 49 58 25 160 -43 189 l-32 13 21 22 c32 34 26 71 -17 94 -25 13
-39 13 -68 2z m59 -27 c38 -37 7 -84 -55 -84 -36 0 -39 2 -39 28 0 57 59 92
94 56z m15 -115 c86 -30 76 -181 -13 -203 -27 -7 -76 9 -88 27 -4 7 -8 51 -8
100 l0 87 39 0 c21 0 52 -5 70 -11z"/>
<path d="M2270 2730 c0 -5 7 -10 15 -10 13 0 15 -23 15 -150 0 -137 -2 -152
-20 -170 -11 -11 -24 -20 -30 -20 -5 0 -9 -21 -9 -47 l1 -48 8 38 c4 20 10 41
14 45 10 9 242 9 252 0 4 -4 10 -25 14 -45 l8 -38 1 48 c0 26 -3 47 -9 47 -5
0 -19 9 -30 20 -18 18 -20 33 -20 170 0 127 2 150 15 150 8 0 15 5 15 10 0 6
-47 10 -120 10 -73 0 -120 -4 -120 -10z m178 -172 l3 -158 -61 0 -60 0 0 160
0 161 58 -3 57 -3 3 -157z"/>
<path d="M2568 2723 c21 -15 22 -21 22 -174 0 -156 0 -158 -22 -162 -13 -2 4
-5 37 -5 45 -1 54 2 38 8 -20 8 -23 17 -23 68 0 56 3 63 51 123 28 35 53 66
55 68 2 2 4 -55 4 -127 0 -116 -2 -131 -17 -135 -10 -3 5 -5 32 -6 38 0 46 2
33 10 -16 9 -18 28 -18 169 0 136 2 160 15 160 8 0 15 5 15 10 0 6 -20 10 -45
10 -25 0 -45 -4 -45 -10 0 -5 7 -10 15 -10 28 0 15 -35 -40 -104 l-55 -69 0
87 c0 70 3 86 15 86 8 0 15 5 15 10 0 6 -24 10 -52 9 -51 0 -52 -1 -30 -16z"/>
<path d="M2810 2731 c0 -5 7 -11 15 -15 12 -4 15 -32 15 -165 0 -144 -2 -160
-17 -164 -10 -3 7 -5 37 -5 42 -1 50 1 33 8 -22 9 -23 15 -23 115 l0 105 55 0
55 0 0 -109 c0 -96 -2 -110 -17 -114 -10 -3 5 -5 32 -6 38 0 46 2 33 10 -16 9
-18 28 -18 169 0 136 2 160 15 160 8 0 15 5 15 10 0 6 -20 10 -45 10 -25 0
-45 -4 -45 -10 0 -5 7 -10 15 -10 11 0 15 -12 15 -45 l0 -45 -55 0 -55 0 0 45
c0 33 4 45 15 45 8 0 15 5 15 10 0 6 -20 10 -45 10 -25 0 -45 -4 -45 -9z"/>
<path d="M1730 2248 c0 -9 -21 -13 -73 -13 -84 0 -125 -21 -168 -83 -35 -52
-34 -143 3 -199 50 -76 165 -106 237 -62 18 11 31 22 28 25 -3 3 -17 -2 -32
-12 -34 -22 -100 -22 -143 0 -43 22 -83 85 -89 140 -11 94 62 179 153 179 54
0 71 -13 83 -66 8 -40 9 -39 10 31 1 39 -1 72 -4 72 -3 0 -5 -6 -5 -12z"/>
<path d="M1940 2250 c0 -6 -33 -10 -80 -10 -73 0 -101 -10 -66 -23 22 -9 23
-327 1 -327 -8 0 -15 -4 -15 -10 0 -6 33 -10 79 -10 54 0 81 -4 84 -12 3 -7 5
19 5 57 -1 39 -3 54 -5 35 -6 -48 -19 -60 -64 -60 l-39 0 0 111 c0 99 2 110
17 107 9 -2 20 -14 24 -28 4 -16 7 -1 7 40 -1 36 -3 53 -5 38 -3 -20 -10 -28
-24 -28 -16 0 -19 7 -19 45 l0 45 45 0 c47 0 47 0 58 -70 3 -14 5 5 6 43 0 37
-1 67 -4 67 -3 0 -5 -4 -5 -10z"/>
<path d="M2270 2190 c0 -40 4 -70 10 -70 6 0 10 20 10 45 0 38 4 47 23 54 37
14 62 -2 62 -40 0 -27 -6 -36 -27 -47 -30 -14 -37 -32 -13 -32 27 0 91 -38
108 -64 44 -66 -4 -146 -86 -146 -109 0 -171 121 -83 161 53 24 114 -26 70
-58 -17 -12 -17 -13 3 -13 48 0 53 56 7 86 -50 33 -127 -7 -140 -73 -18 -90
103 -154 202 -107 45 21 64 50 64 94 -1 54 -38 103 -94 124 -15 5 -17 9 -8 18
7 7 12 28 12 48 0 45 -25 70 -68 70 -18 0 -32 5 -32 10 0 6 -4 10 -10 10 -6 0
-10 -30 -10 -70z"/>
<path d="M2660 2250 c0 -6 -33 -10 -80 -10 -44 0 -80 -3 -80 -6 0 -3 6 -12 14
-20 11 -10 14 -50 15 -169 2 -133 0 -155 -14 -155 -8 0 -15 -4 -15 -10 0 -6
33 -10 79 -10 54 0 81 -4 84 -12 3 -7 5 19 5 57 -1 39 -3 54 -5 35 -6 -48 -19
-60 -64 -60 l-39 0 0 111 c0 100 2 110 17 107 10 -2 21 -16 24 -33 4 -19 7 -4
6 40 0 39 -2 58 -4 43 -3 -20 -10 -28 -24 -28 -16 0 -19 7 -19 45 l0 45 45 0
c47 0 47 0 58 -70 3 -14 5 5 6 43 0 37 -1 67 -4 67 -3 0 -5 -4 -5 -10z"/>
<path d="M1965 2230 c-3 -5 1 -10 9 -10 13 0 16 -26 18 -165 3 -154 2 -165
-15 -165 -10 0 -16 -4 -13 -9 7 -11 94 -12 101 -1 3 4 -4 10 -15 13 -18 5 -20
14 -20 111 l0 106 55 0 55 0 0 -110 c0 -91 -3 -110 -15 -110 -8 0 -15 -4 -15
-10 0 -5 20 -10 45 -10 44 0 60 12 30 24 -12 4 -15 32 -15 166 0 136 2 160 15
160 8 0 15 5 15 10 0 6 -20 10 -45 10 -44 0 -60 -12 -30 -24 10 -3 15 -19 15
-46 l0 -40 -55 0 -55 0 0 45 c0 33 4 45 15 45 8 0 15 5 15 10 0 6 -20 10 -44
10 -25 0 -48 -4 -51 -10z"/>
<path d="M2780 2231 c0 -5 10 -11 23 -13 21 -3 22 -7 25 -128 4 -156 -2 -188
-34 -202 -52 -24 -101 32 -75 88 13 30 -3 32 -23 2 -55 -79 55 -149 131 -84
l28 24 3 151 c3 123 6 151 18 151 8 0 14 5 14 10 0 6 -25 10 -55 10 -30 0 -55
-4 -55 -9z"/>
<path d="M2910 2231 c0 -5 7 -11 15 -15 12 -4 15 -32 15 -166 0 -136 -2 -160
-15 -160 -8 0 -15 -5 -15 -10 0 -7 64 -10 185 -10 102 1 185 5 185 10 0 5 -5
10 -11 12 -15 5 -13 321 2 326 5 2 9 8 9 13 0 12 -77 12 -85 -1 -3 -5 1 -10 9
-10 14 0 16 -22 16 -166 l0 -165 -52 3 -53 3 -3 163 c-2 140 0 162 13 162 8 0
15 5 15 10 0 6 -20 10 -45 10 -44 0 -60 -12 -30 -24 12 -4 15 -32 15 -166 l0
-161 -52 3 -53 3 -3 163 c-2 140 0 162 13 162 8 0 15 5 15 10 0 6 -20 10 -45
10 -25 0 -45 -4 -45 -9z"/>
<path d="M3300 2230 c0 -5 7 -10 15 -10 13 0 15 -25 15 -165 0 -143 -2 -165
-16 -165 -8 0 -12 -4 -9 -10 3 -5 26 -10 51 -10 24 0 44 5 44 10 0 6 -6 10
-14 10 -21 0 -26 23 -26 126 l0 94 60 0 60 0 0 -110 c0 -91 -3 -110 -15 -110
-8 0 -15 -4 -15 -10 0 -5 18 -10 39 -10 22 0 43 5 46 10 3 6 -1 10 -9 10 -14
0 -16 22 -16 165 0 140 2 165 15 165 8 0 15 5 15 10 0 6 -20 10 -45 10 -49 0
-53 -4 -30 -26 8 -9 15 -31 15 -50 l0 -34 -60 0 -60 0 0 45 c0 39 3 45 21 45
11 0 17 5 14 10 -3 6 -26 10 -51 10 -24 0 -44 -4 -44 -10z"/>
<path d="M2503 1759 c5 -17 3 -18 -9 -8 -22 18 -42 -4 -24 -26 11 -13 15 -13
21 -3 7 10 9 9 9 -4 0 -17 -12 -23 -34 -19 -4 1 -5 -11 -1 -26 4 -15 9 -52 11
-82 2 -29 6 -56 9 -59 8 -9 56 50 52 62 -3 6 7 26 21 45 20 27 22 35 11 42
-11 7 -10 9 4 9 10 0 17 8 17 20 0 11 -4 20 -9 20 -5 0 -7 9 -4 20 4 14 0 20
-12 20 -12 0 -16 -6 -12 -19 4 -17 2 -18 -13 -9 -10 7 -16 18 -13 25 3 8 -2
13 -12 13 -13 0 -16 -6 -12 -21z m37 -61 c0 -4 -4 -8 -9 -8 -6 0 -12 4 -15 8
-3 5 1 9 9 9 8 0 15 -4 15 -9z"/>
<path d="M423 3618 c-11 -13 -23 -31 -26 -40 -4 -10 -11 -18 -17 -18 -20 0 -9
-36 25 -79 19 -24 35 -40 35 -36 0 5 -5 37 -11 71 -9 52 -8 68 4 94 18 36 17
37 -10 8z"/>
<path d="M4570 3611 c12 -23 11 -41 -7 -141 l-6 -35 37 45 c38 48 45 77 21 86
-8 4 -15 12 -15 19 0 6 -10 20 -21 31 -22 19 -22 19 -9 -5z"/>
<path d="M263 3485 c-26 -19 -47 -78 -39 -111 9 -36 42 -64 76 -64 36 0 70 31
69 63 -1 20 -2 20 -6 2 -8 -31 -34 -55 -60 -55 -61 0 -87 97 -38 145 29 30 50
31 93 5 50 -31 74 -95 83 -220 l7 -105 -2 110 c-1 93 -5 117 -25 158 -37 76
-107 108 -158 72z"/>
<path d="M4634 3481 c-51 -31 -78 -100 -82 -211 -1 -52 1 -115 5 -139 6 -32 8
-7 8 90 0 121 2 139 24 182 24 49 69 87 104 87 10 0 29 -11 42 -25 34 -33 35
-107 3 -129 -43 -30 -88 -12 -101 39 -4 18 -5 18 -6 -2 -3 -54 79 -83 119 -43
40 40 38 103 -5 146 -29 29 -69 31 -111 5z"/>
<path d="M4649 3413 c-13 -16 -12 -17 4 -4 16 13 21 21 13 21 -2 0 -10 -8 -17
-17z"/>
<path d="M432 3110 c0 -19 2 -27 5 -17 2 9 2 25 0 35 -3 9 -5 1 -5 -18z"/>
<path d="M4572 3060 c0 -14 2 -19 5 -12 2 6 2 18 0 25 -3 6 -5 1 -5 -13z"/>
<path d="M421 3054 c0 -11 3 -14 6 -6 3 7 2 16 -1 19 -3 4 -6 -2 -5 -13z"/>
<path d="M411 3014 c0 -11 3 -14 6 -6 3 7 2 16 -1 19 -3 4 -6 -2 -5 -13z"/>
<path d="M4581 3014 c0 -11 3 -14 6 -6 3 7 2 16 -1 19 -3 4 -6 -2 -5 -13z"/>
<path d="M431 2869 c0 -9 -16 -45 -35 -80 -18 -35 -37 -75 -41 -89 -6 -22 -3
-21 34 15 29 28 39 44 35 58 -3 10 -1 31 6 47 6 16 10 37 7 47 -4 14 -5 14 -6
2z"/>
<path d="M4560 2866 c0 -9 6 -32 14 -50 10 -25 11 -37 3 -45 -8 -8 0 -22 28
-51 22 -23 41 -37 43 -32 1 5 -18 51 -43 102 -25 52 -45 86 -45 76z"/>
<path d="M435 2597 c0 -24 -5 -32 -25 -38 -21 -6 -22 -7 -4 -8 11 -1 25 4 32
11 13 13 16 54 4 61 -4 3 -7 -9 -7 -26z"/>
<path d="M4551 2595 c-1 -12 4 -26 11 -33 7 -7 21 -12 33 -11 17 1 16 2 -5 8
-14 4 -27 17 -31 31 -6 21 -7 22 -8 5z"/>
<path d="M410 2441 c20 -6 25 -14 25 -38 0 -17 3 -29 7 -26 12 7 9 48 -4 61
-7 7 -21 12 -32 11 -18 -1 -17 -2 4 -8z"/>
<path d="M4567 2443 c-3 -5 8 -8 23 -8 15 0 26 3 23 8 -2 4 -13 7 -23 7 -10 0
-21 -3 -23 -7z"/>
<path d="M4551 2404 c0 -11 3 -14 6 -6 3 7 2 16 -1 19 -3 4 -6 -2 -5 -13z"/>
<path d="M355 2301 c4 -14 25 -61 47 -105 27 -54 38 -69 33 -46 -5 19 -9 50
-9 67 -1 24 -12 43 -40 70 -34 34 -37 35 -31 14z"/>
<path d="M4605 2280 c-28 -29 -36 -43 -28 -51 8 -8 7 -20 -3 -45 -32 -77 -11
-60 32 25 25 51 44 96 42 102 -2 5 -21 -8 -43 -31z"/>
<path d="M411 1984 c0 -11 3 -14 6 -6 3 7 2 16 -1 19 -3 4 -6 -2 -5 -13z"/>
<path d="M421 1944 c0 -11 3 -14 6 -6 3 7 2 16 -1 19 -3 4 -6 -2 -5 -13z"/>
<path d="M4572 1940 c0 -14 2 -19 5 -12 2 6 2 18 0 25 -3 6 -5 1 -5 -13z"/>
<path d="M432 1885 c0 -16 2 -22 5 -12 2 9 2 23 0 30 -3 6 -5 -1 -5 -18z"/>
<path d="M4555 1844 c-11 -103 -2 -204 25 -259 38 -78 110 -107 163 -65 53 42
41 151 -18 166 -34 8 -71 -2 -79 -23 -6 -16 -6 -16 12 0 69 63 144 -62 77
-128 -13 -14 -32 -25 -42 -25 -35 0 -80 38 -104 87 -22 43 -24 61 -24 181 0
72 -1 132 -2 132 -1 0 -5 -30 -8 -66z"/>
<path d="M439 1750 c-6 -125 -29 -188 -81 -220 -43 -26 -64 -25 -93 5 -49 48
-23 145 38 145 33 0 61 -33 55 -64 -3 -14 -1 -23 3 -20 16 10 9 54 -11 74 -40
40 -111 16 -126 -45 -14 -57 31 -125 83 -125 82 0 135 85 141 226 2 49 2 99 0
110 -2 10 -7 -28 -9 -86z"/>
<path d="M4631 1624 c0 -11 3 -14 6 -6 3 7 2 16 -1 19 -3 4 -6 -2 -5 -13z"/>
<path d="M403 1514 c-36 -47 -41 -71 -18 -80 8 -4 15 -12 15 -18 0 -7 11 -23
25 -36 l25 -24 -16 33 c-14 28 -14 41 -4 97 7 36 11 66 9 68 -2 2 -19 -16 -36
-40z"/>
<path d="M4563 1530 c18 -100 19 -118 7 -141 -13 -24 -13 -24 9 -5 11 11 21
25 21 31 0 7 7 15 15 19 24 9 17 38 -21 86 l-37 45 6 -35z"/>
<path d="M1635 999 c-109 -26 -170 -125 -111 -184 77 -77 205 -7 156 86 -6 10
-16 19 -22 19 -6 0 -4 -8 5 -18 22 -24 21 -65 -1 -85 -24 -21 -90 -22 -120 -1
-32 22 -30 82 3 118 38 41 90 58 205 66 l105 7 -90 0 c-49 1 -108 -3 -130 -8z"/>
<path d="M2410 1001 c14 -4 27 -17 31 -31 6 -21 7 -22 8 -4 1 26 -17 44 -43
43 -18 -1 -17 -2 4 -8z"/>
<path d="M2588 1003 c7 -3 16 -2 19 1 4 3 -2 6 -13 5 -11 0 -14 -3 -6 -6z"/>
<path d="M3120 1001 c-19 -3 26 -6 100 -6 122 0 140 -2 183 -24 79 -38 107
-102 63 -145 -68 -69 -191 6 -128 77 13 16 14 19 2 15 -20 -6 -34 -49 -26 -81
7 -29 51 -57 88 -57 13 0 38 9 55 20 83 50 38 160 -80 195 -51 15 -188 18
-257 6z"/>
<path d="M1385 980 c10 -11 24 -20 32 -20 7 0 16 -7 19 -15 10 -24 36 -17 83
20 49 39 48 39 -33 24 -41 -7 -67 -7 -88 0 -31 11 -31 11 -13 -9z"/>
<path d="M1873 993 c9 -2 23 -2 30 0 6 3 -1 5 -18 5 -16 0 -22 -2 -12 -5z"/>
<path d="M2209 956 c52 -26 98 -45 103 -44 5 2 -7 19 -27 38 -25 24 -46 35
-68 36 -18 0 -48 4 -67 9 -21 4 1 -11 59 -39z"/>
<path d="M2554 985 c-3 -8 -4 -20 -2 -27 3 -7 7 -1 10 15 6 29 1 36 -8 12z"/>
<path d="M2820 989 c-13 -6 -34 -8 -45 -5 -16 4 -32 -5 -60 -34 -22 -22 -34
-40 -28 -40 7 0 53 20 104 45 51 25 84 45 73 44 -10 0 -30 -5 -44 -10z"/>
<path d="M3480 966 c48 -38 77 -45 86 -21 4 8 12 15 19 15 6 0 20 10 31 21 19
22 19 22 -5 9 -23 -12 -41 -11 -141 7 l-35 6 45 -37z"/>
<path d="M1928 983 c6 -2 18 -2 25 0 6 3 1 5 -13 5 -14 0 -19 -2 -12 -5z"/>
<path d="M3048 983 c6 -2 18 -2 25 0 6 3 1 5 -13 5 -14 0 -19 -2 -12 -5z"/>
<path d="M1618 923 c7 -3 16 -2 19 1 4 3 -2 6 -13 5 -11 0 -14 -3 -6 -6z"/>
<path d="M3368 923 c7 -3 16 -2 19 1 4 3 -2 6 -13 5 -11 0 -14 -3 -6 -6z"/>
<path d="M1579 903 c-13 -16 -12 -17 4 -4 16 13 21 21 13 21 -2 0 -10 -8 -17
-17z"/>
<path d="M3400 916 c0 -2 8 -10 18 -17 15 -13 16 -12 3 4 -13 16 -21 21 -21
13z"/>
</g>
</svg>
